<svg xmlns="http://www.w3.org/2000/svg" viewBox="0 0 222.28 108.07"><defs><style>.cls-1{fill:#ec961f;}.cls-2{fill:#efbc26;}</style></defs><title>bottomBun</title><g id="Layer_2" data-name="Layer 2"><g id="Layer_2-2" data-name="Layer 2"><path class="cls-1" d="M222.28,50.34v7.39c0,27.8-49.76,50.34-111.13,50.34S0,85.53,0,57.73V50.34a22.56,22.56,0,0,1,.6-5.13c5.74,18.2,53.05,32.4,110.55,32.4s104.79-14.2,110.53-32.4A22.56,22.56,0,0,1,222.28,50.34Z"/><path class="cls-2" d="M221.68,45.21c-5.74,18.2-53.05,32.4-110.53,32.4S6.34,63.41.6,45.21a19.83,19.83,0,0,1,.62-2.29C8.87,19.39,52.47,1.17,105.94.05c1.74,0,3.46,0,5.21,0s3.47,0,5.22.05c53.43,1.12,97,19.34,104.69,42.87A19.83,19.83,0,0,1,221.68,45.21Z"/></g></g></svg>