<svg xmlns="http://www.w3.org/2000/svg" viewBox="0 0 222.28 108.07"><defs><style>.cls-1{fill:#641703;}.cls-2{fill:#7f2906;}</style></defs><title>Burger</title><g id="Layer_2" data-name="Layer 2"><g id="Layer_2-2" data-name="Layer 2"><path class="cls-1" d="M222.28,50.34v7.39c0,27.8-49.76,50.34-111.13,50.34S0,85.53,0,57.73V50.34a22.56,22.56,0,0,1,.6-5.13c5.74,18.2,53.05,32.4,110.55,32.4s104.79-14.2,110.53-32.4A22.56,22.56,0,0,1,222.28,50.34Z"/><path class="cls-2" d="M221.68,45.21c-5.74,18.2-53.05,32.4-110.53,32.4S6.34,63.41.6,45.21a19.83,19.83,0,0,1,.62-2.29C8.87,19.39,52.47,1.17,105.94.05c1.74,0,3.46,0,5.21,0s3.47,0,5.22.05c53.43,1.12,97,19.34,104.69,42.87A19.83,19.83,0,0,1,221.68,45.21Z"/><path class="cls-1" d="M33.38,49.25a1,1,0,0,1-.82-.42,1,1,0,0,1,.25-1.4C51.72,34.21,73.63,20.6,105.69,10.62a1,1,0,0,1,.59,1.91C74.49,22.43,52.73,35.94,34,49.07A1,1,0,0,1,33.38,49.25Z"/><path class="cls-1" d="M74.84,56.39A1,1,0,0,1,74,56a1,1,0,0,1,.24-1.39c18.91-13.23,40.82-26.84,72.88-36.82a1,1,0,0,1,1.26.66,1,1,0,0,1-.66,1.25c-31.8,9.9-53.56,23.41-72.33,36.54A.92.92,0,0,1,74.84,56.39Z"/><path class="cls-1" d="M118.62,67.59a1,1,0,0,1-.57-1.82C137,52.55,158.87,38.94,190.93,29a1,1,0,1,1,.59,1.91C159.73,40.76,138,54.28,119.2,67.41A1,1,0,0,1,118.62,67.59Z"/></g></g></svg>