<svg xmlns="http://www.w3.org/2000/svg" viewBox="0 0 163.76 58.92"><defs><style>.cls-1{fill:#e52710;}</style></defs><title>Ketchup</title><g id="Layer_2" data-name="Layer 2"><g id="Layer_2-2" data-name="Layer 2"><path class="cls-1" d="M163.61,38.7A7.18,7.18,0,0,1,161.94,42a9.4,9.4,0,0,1-2.55,2,18.77,18.77,0,0,1-2.53,1.12,26.43,26.43,0,0,1-5.17,1.29c-3.4.48-6.73.53-10,.67a.84.84,0,0,1-.88-.78.81.81,0,0,1,.6-.83c3.22-1,6.48-1.59,9.49-2.55a29.89,29.89,0,0,0,4.25-1.7A16.43,16.43,0,0,0,157,40.1,4.69,4.69,0,0,0,158.21,39a1.91,1.91,0,0,0,.21-2.16,4,4,0,0,0-2.14-1.9,7.57,7.57,0,0,0-1.67-.49,12.71,12.71,0,0,0-2.05-.2,21.09,21.09,0,0,0-4.32.3c-5.69.94-11.12,4.41-16.51,8l-4.16,2.73-4.18,2.64c-2.74,1.72-5.5,3.61-8.46,5.35a47.38,47.38,0,0,1-9.67,4.58,28.75,28.75,0,0,1-5.7,1.08,25.52,25.52,0,0,1-5.83-.16A11.63,11.63,0,0,1,87,55.52a10.59,10.59,0,0,1-1.4-2.09A9.85,9.85,0,0,1,84.93,51a13.22,13.22,0,0,1,0-2.18c.11-.62.25-1.24.41-1.84A13.39,13.39,0,0,1,89,41.23a51.8,51.8,0,0,1,4-3.65c5.49-4.53,11.51-7.79,17.09-11.12,2.83-1.64,5.54-3.29,8.07-5.08l0-.05-2.27.44-4.5,1.17-4.44,1.47a136,136,0,0,0-17.37,8C78.1,38.49,66.59,45.69,53.31,50l-5,1.45a13.65,13.65,0,0,1-7.21.2,10,10,0,0,1-6.44-5.86A8.92,8.92,0,0,1,34,41.21a9.23,9.23,0,0,1,.44-2.12,9.72,9.72,0,0,1,.73-1.77A19.78,19.78,0,0,1,39,32.25a39.1,39.1,0,0,1,4.12-3.63,98.25,98.25,0,0,1,8.47-5.89C56.62,19.38,71.31,12.51,71,11.39,70.63,10,61.29,16,58.28,17.47c-4.65,2.25-9.29,4.71-14,7.1s-9.67,4.62-14.77,6.6a85.32,85.32,0,0,1-16,4.5l-4.19.55a7.22,7.22,0,0,1-1.14.11,11.61,11.61,0,0,1-1.34,0,8.79,8.79,0,0,1-3.56-.74A5.77,5.77,0,0,1,.82,33.51,5.57,5.57,0,0,1,0,30.34a8.4,8.4,0,0,1,1.08-3.52A19.56,19.56,0,0,1,3.94,23a49.55,49.55,0,0,1,6.3-5.75,72.64,72.64,0,0,1,7-4.41C22,10.21,26.82,8.08,31.67,6a1.17,1.17,0,0,1,1.56.62A1.23,1.23,0,0,1,32.89,8c-8.32,6.66-17.58,12-23.3,19.71,0,.07-.09.11-.13.18l2.48-.43a77.77,77.77,0,0,0,14.22-4.6c4.66-1.93,9.28-4.2,13.9-6.59s9.35-4.8,14.17-7.15a116.88,116.88,0,0,1,15-6.32c5.17-1.74,11-3.35,17.32-2.64h0a4.24,4.24,0,0,1,3.5,5.75,15.72,15.72,0,0,1-3.82,5.51,30.3,30.3,0,0,1-4.59,3.49c-2.94,1.84-5.77,3.47-8.66,5.13C67.24,23.38,61.79,26.5,56.35,30.2,53.61,32,51,33.72,48.6,35.6a34.71,34.71,0,0,0-3.26,2.92,12.09,12.09,0,0,0-2.16,2.78,2,2,0,0,0-.21.5c0,.12-.11.28-.06.28s0,.14,0,.3a1.15,1.15,0,0,0,.62.59,5.51,5.51,0,0,0,2.55-.29l4.43-1.31c11.9-3.86,23.07-10.57,34.86-16.8a141.16,141.16,0,0,1,18.54-8.43l5-1.61,5-1.31,5.22-.94a14.93,14.93,0,0,1,3.56-.07,8.55,8.55,0,0,1,4.57,1.86A6.82,6.82,0,0,1,129.7,20a8.19,8.19,0,0,1-2,4.55,13.9,13.9,0,0,1-2.55,2.34L123,28.41c-2.89,2-5.83,3.7-8.73,5.35-5.77,3.31-11.42,6.32-16.15,10.16-1.17.94-2.32,1.95-3.35,3A6,6,0,0,0,93,49.29a3.53,3.53,0,0,1-.16.58c0,.11,0,.18,0,.25h0s0,0,0,0a5.31,5.31,0,0,0,2.09.71,21,21,0,0,0,8-.46,39.49,39.49,0,0,0,8.25-3.65c2.76-1.51,5.52-3.26,8.41-5l4.25-2.51,4.21-2.52a89.11,89.11,0,0,1,9-4.94,43.38,43.38,0,0,1,4.93-2,30.32,30.32,0,0,1,5.36-1.22,26.37,26.37,0,0,1,5.56-.16,18,18,0,0,1,2.85.41,12.89,12.89,0,0,1,3,1.08,9.53,9.53,0,0,1,4.6,5A7,7,0,0,1,163.61,38.7Z"/></g></g></svg>