<?xml version="1.0" encoding="utf-8"?>
<!-- Generator: Adobe Illustrator 23.0.6, SVG Export Plug-In . SVG Version: 6.00 Build 0)  -->
<svg version="1.1" id="Layer_1" xmlns:sketch="http://www.bohemiancoding.com/sketch/ns"
	 xmlns="http://www.w3.org/2000/svg" xmlns:xlink="http://www.w3.org/1999/xlink" x="0px" y="0px" viewBox="0 0 50 50"
	 style="enable-background:new 0 0 50 50;" xml:space="preserve">
<style type="text/css">
	.st0{fill-rule:evenodd;clip-rule:evenodd;fill:#FFFFFF;}
</style>
<title>arrow_012-up-top-upload-direction</title>
<desc>Created with Sketch.</desc>
<g sketch:type="MSPage">
	<g transform="translate(-180.000000, -90.000000)" sketch:type="MSArtboardGroup">
		<path sketch:type="MSShapeGroup" class="st0" d="M230,115c0-13.8-11.2-25-25-25s-25,11.2-25,25s11.2,25,25,25S230,128.8,230,115z
			 M182,115c0-12.8,10.2-23,23-23s23,10.2,23,23s-10.2,23-23,23S182,127.8,182,115z M204.2,98.2l-12,12c-0.6,0.6-0.2,1.8,0.8,1.8h7
			v17c0,0.6,0.4,1,1,1h8c0.6,0,1-0.4,1-1v-17h7c0.8,0,1.4-1,0.8-1.8l-12-12C205.4,98,204.6,98,204.2,98.2z M214.6,110H209
			c-0.6,0-1,0.4-1,1v17h-6v-17c0-0.6-0.4-1-1-1h-5.6l9.6-9.6L214.6,110z"/>
	</g>
</g>
</svg>
