<svg xmlns="http://www.w3.org/2000/svg" viewBox="0 0 213.02 90.62"><defs><style>.cls-1{fill:#a3257b;}.cls-2{fill:#fff8ff;}</style></defs><title>Onion</title><g id="Layer_2" data-name="Layer 2"><g id="Layer_2-2" data-name="Layer 2"><path class="cls-1" d="M212.54,63.09C209.29,76.5,184.75,83,157.74,77.63s-46.27-20.6-43-34a11,11,0,0,1,.55-1.71c-1,11.3,17.88,24.13,43.47,29.23,26.7,5.3,50.63.18,53.45-11.46a9.91,9.91,0,0,0,.26-2.92A13,13,0,0,1,212.54,63.09Z"/><path class="cls-1" d="M176.33,79.64a95.7,95.7,0,0,1-18.61-1.89C139.05,74,123.5,65.54,117.14,55.57c-2.62-4.09-3.47-8.12-2.53-12a10.58,10.58,0,0,1,.56-1.73l.3-.74-.06.8C114.45,53.21,133.5,66,158.77,71c26.6,5.28,50.51.18,53.31-11.37a9.79,9.79,0,0,0,.26-2.88l.24,0a13.13,13.13,0,0,1,.08,6.38h0C210.18,73.39,195.26,79.64,176.33,79.64ZM115.12,42.7c-.1.32-.19.63-.27.95-.92,3.79-.08,7.75,2.5,11.79,6.32,9.91,21.81,18.37,40.42,22.06,26.9,5.38,51.42-1.1,54.65-14.44h0a12.81,12.81,0,0,0,.17-5.09,10.93,10.93,0,0,1-.27,1.75c-2.83,11.68-26.87,16.86-53.6,11.55C146.37,68.81,135.1,64.44,127,59,119.28,53.76,115.1,48,115.12,42.7Z"/><path class="cls-2" d="M212.2,59.69a10.66,10.66,0,0,1-1.55,3.42.61.61,0,0,0,0-.14c-2.3-9.33-14-18.68-30.5-24.33l-2-.66a94.22,94.22,0,0,0-10.41-2.68c-.84-.17-1.67-.31-2.5-.46-22.32-3.86-42.52.38-49.78,9.88a10.57,10.57,0,0,1-.15-2.8C120,30.08,142.18,24.34,167,28.64c.82.15,1.66.3,2.49.47a94.4,94.4,0,0,1,10.42,2.67l2,.66c16.47,5.65,28.21,15,30.5,24.33A9.91,9.91,0,0,1,212.2,59.69Z"/><path class="cls-1" d="M210.32,63.82l.21-.74a.33.33,0,0,0,0-.1c-2.28-9.28-13.94-18.57-30.41-24.22l-2-.66a92.59,92.59,0,0,0-10.41-2.67c-.83-.17-1.69-.32-2.49-.46-21.92-3.8-42.34.24-49.66,9.82l-.17.22,0-.27a10.48,10.48,0,0,1-.15-2.83v0c4.73-11.92,27-17.66,51.88-13.35l2.49.46A95.34,95.34,0,0,1,180,31.66l2,.66c16.56,5.69,28.27,15,30.58,24.42a9.74,9.74,0,0,1-.26,3h0a10.58,10.58,0,0,1-1.57,3.46ZM149.15,33.31a94.24,94.24,0,0,1,16.09,1.41c.8.14,1.66.29,2.49.46a94.58,94.58,0,0,1,10.43,2.68l2,.66c16.45,5.65,28.12,14.92,30.53,24.24a10.26,10.26,0,0,0,1.35-3.1,9.79,9.79,0,0,0,.26-2.88c-2.29-9.27-13.94-18.56-30.42-24.22l-2-.66a93,93,0,0,0-10.4-2.67c-.82-.17-1.65-.32-2.49-.46-24.73-4.29-46.9,1.38-51.6,13.18a9.83,9.83,0,0,0,.11,2.47C121.13,37.32,133.93,33.31,149.15,33.31Z"/><path class="cls-1" d="M137.93,66.05c-.8,15-32.33,25.94-70.38,24.28S-.69,75.18.14,60.13a9.1,9.1,0,0,1,.29-1.94c1.73,12.41,30.69,23.4,66.74,25,37.62,1.61,68.69-7.66,69.39-20.73a8.75,8.75,0,0,0-.43-3.2A12.13,12.13,0,0,1,137.93,66.05Z"/><path class="cls-1" d="M75.13,90.62c-2.49,0-5-.05-7.59-.17A150.35,150.35,0,0,1,28.6,83.94C17.47,80.36,9.07,75.69,4.31,70.43,1.27,67.08-.17,63.61,0,60.12a8.68,8.68,0,0,1,.29-2l.15-.61.09.62c1.73,12.4,31,23.31,66.63,24.85,37.5,1.6,68.56-7.64,69.25-20.61a8.82,8.82,0,0,0-.42-3.16l-.36-1.11.59,1a12.24,12.24,0,0,1,1.82,6.91h0C137.3,80.15,109.73,90.62,75.13,90.62ZM.41,58.83a8.2,8.2,0,0,0-.14,1.3C.08,63.56,1.5,67,4.49,70.26c4.74,5.23,13.1,9.87,24.19,13.44a150.23,150.23,0,0,0,38.88,6.5C105.49,91.85,137,81,137.81,66h0a11.65,11.65,0,0,0-1.29-5.85,9.17,9.17,0,0,1,.16,2.23c-.34,6.38-7.77,12-20.93,16s-30.37,5.65-48.58,4.87c-17.4-.75-33.83-3.74-46.28-8.42C8.89,70.35,1.66,64.68.41,58.83Z"/><path class="cls-2" d="M136.56,62.41a9.4,9.4,0,0,1-1.18,4,1.1,1.1,0,0,0,0-.16c-5.62-9.76-24-18.08-47.86-21.65l-2.94-.41c-4.76-.63-9.73-1.06-14.84-1.28-1.17,0-2.34-.08-3.5-.11C34.92,42,8.67,49.77,1.39,61.2a9.77,9.77,0,0,1-1-3C3.61,44.61,32.18,34.94,67,35.75c1.15,0,2.32.06,3.5.12,5.11.22,10.07.65,14.83,1.28l2.94.4c23.83,3.58,42.25,11.9,47.86,21.66A8.75,8.75,0,0,1,136.56,62.41Z"/><path class="cls-1" d="M135.18,67l.07-.61a.52.52,0,0,0,0-.11c-5.59-9.72-23.9-18-47.76-21.57l-2.94-.4c-4.75-.63-9.74-1.07-14.82-1.28-1.14-.06-2.26-.09-3.5-.12C35.46,42.17,8.85,49.73,1.49,61.27l-.12.18-.1-.2a9.85,9.85,0,0,1-1-3v-.05C3.51,44.5,32.18,34.82,67,35.63c1.24,0,2.36.06,3.5.11,5.1.22,10.09.65,14.85,1.29l2.94.4c23.94,3.59,42.31,11.91,48,21.72a8.84,8.84,0,0,1,.44,3.27h0a9.42,9.42,0,0,1-1.19,4Zm-73-24.38c1.32,0,2.65,0,4,0s2.36.06,3.5.12c5.09.21,10.09.65,14.85,1.28l2.94.4C111.37,48,129.7,56.29,135.4,66.06a9,9,0,0,0,1-3.65,8.82,8.82,0,0,0-.42-3.16c-5.59-9.72-23.89-18-47.76-21.57l-2.93-.41c-4.76-.63-9.74-1.06-14.83-1.28-1.14-.05-2.26-.08-3.5-.11C32.3,35.06,3.76,44.66.55,58.2a9.5,9.5,0,0,0,.85,2.74C8.64,50,33.27,42.59,62.23,42.59Z"/><path class="cls-1" d="M165,21.11C165.82,34.89,135.7,48,97.7,50.38S28.2,43.53,27.35,29.75a8.35,8.35,0,0,1,.07-1.8c3.1,11.12,33.11,18.18,69.11,15.93,37.56-2.37,67.41-14,66.65-25.94a7.49,7.49,0,0,0-.78-2.87A10.55,10.55,0,0,1,165,21.11Z"/><path class="cls-1" d="M86,50.87c-24.14,0-45.07-4.8-54.1-12.78-2.92-2.57-4.49-5.38-4.67-8.34a7.84,7.84,0,0,1,.07-1.81l.09-.58.15.56c3.1,11.1,33.4,18.06,69,15.83,18.16-1.14,35.09-4.47,47.66-9.36S163.42,23.67,163.05,18a7.44,7.44,0,0,0-.76-2.83l-.51-1,.71.87a10.66,10.66,0,0,1,2.58,6.11h0c.19,3-1,5.94-3.6,8.86C152.22,40.45,126.6,48.7,97.71,50.5,93.75,50.75,89.83,50.87,86,50.87ZM27.48,28.54a8,8,0,0,0,0,1.2c.18,2.89,1.72,5.63,4.58,8.16,10.43,9.2,36.8,14.16,65.63,12.35s54.39-10,63.59-20.45c2.54-2.87,3.73-5.79,3.54-8.68h0a10,10,0,0,0-1.92-5.19,7.48,7.48,0,0,1,.4,2c.37,5.85-6.39,11.78-19,16.69S114.72,42.86,96.54,44c-17.37,1.08-34,0-46.93-3C37.18,38.17,29.37,33.74,27.48,28.54Z"/><path class="cls-2" d="M163.18,17.94a8,8,0,0,1-.74,3.72.37.37,0,0,0,0-.14c-6.67-8.32-25.89-14-50-14.84l-3-.07c-4.8-.09-9.78,0-14.88.35-1.17.06-2.35.16-3.5.25C59.91,9.74,34.68,19.45,28.71,30.6A8.67,8.67,0,0,1,27.42,28c1.66-12.68,29-24.39,63.66-27.2C92.23.66,93.41.57,94.58.5c5.1-.32,10.08-.44,14.88-.34l3,.06c24.08.83,43.3,6.53,50,14.85A7.49,7.49,0,0,1,163.18,17.94Z"/><path class="cls-1" d="M28.72,30.83l-.11-.16A8.52,8.52,0,0,1,27.3,28v0C29,15.17,56.38,3.43,91.07.63c1.18-.1,2.34-.19,3.5-.25,5.08-.33,10.09-.44,14.9-.35l3,.07C136.62.93,155.8,6.64,162.49,15a7.6,7.6,0,0,1,.81,2.94h0a8.09,8.09,0,0,1-.74,3.78l-.24.53v-.58a.41.41,0,0,0,0-.08c-6.64-8.28-25.75-13.95-49.87-14.77l-3-.07c-4.79-.1-9.79,0-14.88.34-1.16.07-2.31.16-3.49.25C60.46,9.82,34.85,19.41,28.82,30.66ZM27.55,28a8.27,8.27,0,0,0,1.15,2.41C34.94,19.12,60.52,9.56,91.07,7.08c1.18-.09,2.34-.18,3.5-.25,5.09-.32,10.1-.44,14.9-.34l3,.07c24.12.82,43.26,6.5,50,14.81a7.52,7.52,0,0,0,.62-3.42,7.44,7.44,0,0,0-.76-2.83C155.65,6.85,136.54,1.18,112.42.35l-3-.07c-4.79-.09-9.8,0-14.88.34-1.15.07-2.31.16-3.49.26C56.54,3.67,29.23,15.3,27.55,28Z"/></g></g></svg>