<svg xmlns="http://www.w3.org/2000/svg" viewBox="0 0 227.45 129.01"><defs><style>.cls-1{fill:#f4d42b;}.cls-2{fill:#ee961f;}.cls-3{fill:#f3e878;}</style></defs><title>Pineapple</title><g id="Layer_2" data-name="Layer 2"><g id="Layer_2-2" data-name="Layer 2"><path class="cls-1" d="M0,61.2q0,1.21.09,2.43C2.47,96.3,52.44,122.4,113.72,122.4S225,96.3,227.36,63.63c0-.81.09-1.62.09-2.43C227.45,27.4,176.52,0,113.72,0S0,27.4,0,61.2Zm146.91-1.94a10,10,0,0,1-.85,4c-3.37,7.93-16.58,13.85-32.34,13.85s-29-5.92-32.33-13.85a9.83,9.83,0,0,1-.85-4c0-9.86,14.86-17.86,33.18-17.86S146.91,49.4,146.91,59.26Z"/><path class="cls-2" d="M227.36,63.63c0,.83.09,1.66.09,2.51,0,34.72-50.93,62.87-113.73,62.87S0,100.86,0,66.14c0-.85,0-1.68.09-2.51C2.47,96.3,52.44,122.4,113.72,122.4S225,96.3,227.36,63.63Z"/><path class="cls-2" d="M113.72,41.4c18.33,0,33.19,8,33.19,17.86a10,10,0,0,1-.85,4c-3.37-7.93-16.58-13.85-32.34-13.85s-29,5.92-32.33,13.85a9.83,9.83,0,0,1-.85-4C80.54,49.4,95.4,41.4,113.72,41.4Z"/><polyline class="cls-3" points="210.78 53 172.36 59.85 210.78 66.69"/><polyline class="cls-3" points="169.27 67.74 150.02 67.64 165.35 73.9"/><polyline class="cls-3" points="141.86 86.39 128.39 79 130.99 89.26"/><polyline class="cls-3" points="97.97 89.15 98.16 78.8 86.52 87.05"/><polyline class="cls-3" points="63.31 74.41 77.06 67.15 57.99 68.56"/><polyline class="cls-3" points="58.18 50.78 77.43 50.89 62.1 44.62"/><polyline class="cls-3" points="85.59 32.13 99.06 39.53 96.46 29.27"/><polyline class="cls-3" points="129.48 29.37 129.29 39.73 140.93 31.48"/><polyline class="cls-3" points="164.14 44.12 150.4 51.37 169.46 49.97"/><polyline class="cls-3" points="191.81 92.59 155.64 82.81 173.81 102.28"/><polyline class="cls-3" points="126.36 113.37 113.64 92.69 100.91 113.37"/><polyline class="cls-3" points="52.79 103.16 70.96 83.7 34.79 93.48"/><polyline class="cls-3" points="14.18 67.94 52.6 61.09 14.18 54.25"/><polyline class="cls-3" points="33.15 28.35 69.32 38.13 51.15 18.66"/><polyline class="cls-3" points="98.59 7.57 111.32 28.25 124.04 7.57"/><polyline class="cls-3" points="172.17 17.78 154 37.24 190.16 27.46"/></g></g></svg>