<svg xmlns="http://www.w3.org/2000/svg" viewBox="0 0 235.28 134.24"><defs><style>.cls-1{fill:#ec961f;}.cls-2{fill:#f0ad23;}.cls-3{fill:#fff;}</style></defs><title>toBun</title><g id="Layer_2" data-name="Layer 2"><g id="Layer_2-2" data-name="Layer 2"><path class="cls-1" d="M235.28,91.62v.14c-1.61,23.55-53.64,42.48-117.63,42.48S1.61,115.31,0,91.76v-.14c0-1.08.07-2.18.11-3.24v0c.1-1.7.23-3.4.4-5.06C6.29,27.71,55,0,114.23,0h6.85c45.14,0,84.15,16.11,102.69,48.36,6.55,11.33,10.55,24.65,11.4,40v0C235.21,89.44,235.26,90.54,235.28,91.62Z"/><path class="cls-2" d="M225.75,68.69v.16c-1.59,26.77-52.71,48.3-115.56,48.3-51,0-94.31-14.2-109.68-33.87C6.29,27.71,55,0,114.23,0h6.85c45.14,0,84.15,16.11,102.69,48.36A124,124,0,0,1,225.63,65v0C225.68,66.21,225.72,67.48,225.75,68.69Z"/><path class="cls-3" d="M63.61,56.65a3,3,0,0,0,4.33,4.13c1.14-1.2,3.17-7.67,3.17-7.67S64.75,55.45,63.61,56.65Z"/><path class="cls-3" d="M38.05,44.3a3,3,0,0,0,4.34,4.13c1.14-1.2,3.16-7.66,3.16-7.66S39.19,43.1,38.05,44.3Z"/><path class="cls-3" d="M51.1,26.74A3,3,0,1,0,53.91,32c1.46-.77,5.42-6.27,5.42-6.27S52.56,26,51.1,26.74Z"/><path class="cls-3" d="M76.83,33.19a3,3,0,0,0,.63,6c1.64-.17,7.38-3.79,7.38-3.79S78.48,33,76.83,33.19Z"/><path class="cls-3" d="M113.69,48.37a3,3,0,1,0,1.76-5.72c-1.58-.49-8.27.59-8.27.59S112.11,47.89,113.69,48.37Z"/><path class="cls-3" d="M98.89,24.52A3,3,0,1,0,101.22,30c1.52-.64,6-5.76,6-5.76S100.41,23.87,98.89,24.52Z"/><path class="cls-3" d="M82,20a3,3,0,0,0-.11-6c-1.65,0-7.68,3.13-7.68,3.13S80.38,20,82,20Z"/><path class="cls-3" d="M120,15.73a3,3,0,1,0-.11-6c-1.65,0-7.68,3.13-7.68,3.13S118.34,15.76,120,15.73Z"/><path class="cls-3" d="M137.56,30.08a3,3,0,1,0,1.67-5.75c-1.59-.46-8.26.72-8.26.72S136,29.62,137.56,30.08Z"/><path class="cls-3" d="M154.65,20.57a3,3,0,1,0,1.67-5.75c-1.58-.46-8.26.72-8.26.72S153.07,20.11,154.65,20.57Z"/><path class="cls-3" d="M165.46,40.93a3,3,0,0,0,0-6c-1.65,0-7.74,3-7.74,3S163.8,40.92,165.46,40.93Z"/><path class="cls-3" d="M180.15,29.46a3,3,0,1,0,2.57-5.4c-1.5-.71-8.27-.62-8.27-.62S178.65,28.75,180.15,29.46Z"/><path class="cls-3" d="M192.71,49.41a3,3,0,1,0,2.57-5.4c-1.5-.71-8.27-.62-8.27-.62S191.21,48.7,192.71,49.41Z"/><path class="cls-3" d="M141.65,58a3,3,0,1,0,3.64-4.75c-1.31-1-8-2.33-8-2.33S140.34,57,141.65,58Z"/></g></g></svg>